<?xml version="1.0" standalone="no"?><!DOCTYPE svg PUBLIC "-//W3C//DTD SVG 1.1//EN" "http://www.w3.org/Graphics/SVG/1.1/DTD/svg11.dtd"><svg t="1587611578518" class="icon" viewBox="0 0 1024 1024" version="1.1" xmlns="http://www.w3.org/2000/svg" p-id="12472" width="1000" height="1000" xmlns:xlink="http://www.w3.org/1999/xlink"><defs><style type="text/css"></style></defs><path d="M480 64C217.6 64 0 281.6 0 544s217.6 480 480 480 480-217.6 480-480S742.4 64 480 64z m204.8 614.4c19.2 19.2 19.2 44.8 0 64-19.2 19.2-44.8 19.2-64 0L486.4 608 345.6 748.8c-19.2 19.2-51.2 19.2-70.4 0-19.2-19.2-19.2-51.2 0-70.4L416 537.6 281.6 403.2c-19.2-19.2-19.2-44.8 0-64 19.2-19.2 44.8-19.2 64 0L480 473.6l140.8-140.8c19.2-19.2 51.2-19.2 70.4 0 19.2 19.2 19.2 51.2 0 70.4L550.4 544l134.4 134.4z" fill="#ff8992" p-id="12473"></path></svg>